<svg xmlns="http://www.w3.org/2000/svg" width="16.745" height="12.036" viewBox="0 0 16.745 12.036"><defs><style>.a{fill:#ffda83;}</style></defs><path class="a" d="M9.419,4A4.659,4.659,0,0,0,5.168,6.829a2.535,2.535,0,0,0-.981-.213A2.624,2.624,0,0,0,1.57,9.233c0,.076.01.141.016.213A3.615,3.615,0,0,0,0,12.373a3.67,3.67,0,0,0,3.663,3.663h9.419a3.67,3.67,0,0,0,3.663-3.663,3.626,3.626,0,0,0-2.633-3.45c0-.072.016-.139.016-.213A4.719,4.719,0,0,0,9.419,4Zm0,1.047A3.654,3.654,0,0,1,13.082,8.71a3.7,3.7,0,0,1-.033.491l-.082.507.523.082a2.616,2.616,0,0,1-.409,5.2H3.663a2.62,2.62,0,0,1-1.276-4.906l.327-.18-.065-.376a1.475,1.475,0,0,1-.033-.294A1.57,1.57,0,0,1,5.1,7.957l.589.442.213-.72A3.659,3.659,0,0,1,9.419,5.047ZM10.466,8.71v4.71h1.047V8.71ZM8.373,9.756v3.663H9.419V9.756ZM6.28,10.28v3.14H7.326V10.28ZM4.186,10.8v2.616H5.233V10.8Z" transform="translate(0 -4)"/></svg>