<svg xmlns="http://www.w3.org/2000/svg" width="16.46" height="16.242" viewBox="0 0 16.46 16.242"><defs><style>.a{fill:#bcbccb;}</style></defs><g transform="translate(3.36 7.263)"><path class="a" d="M18.791,11.444l-1.269,1.269a.315.315,0,0,1-.445,0l-1.923-1.923v7.823a.315.315,0,0,1-.314.314H13.046a.315.315,0,0,1-.314-.314V10.791l-1.923,1.923a.315.315,0,0,1-.445,0L9.1,11.444A.315.315,0,0,1,9.1,11L13.7,6.39a.36.36,0,0,1,.477,0L18.791,11A.315.315,0,0,1,18.791,11.444Zm3.382,10.82V15.006a.264.264,0,0,0-.085-.179.26.26,0,0,0-.161-.062h-1.67a.24.24,0,0,0-.146.068.235.235,0,0,0-.078.161V20.4H7.854v-5.4a.264.264,0,0,0-.085-.179.26.26,0,0,0-.161-.062H5.937a.24.24,0,0,0-.146.068.235.235,0,0,0-.078.161v7.275a.274.274,0,0,0,.273.273H21.9A.278.278,0,0,0,22.173,22.264Z" transform="translate(-9.073 -13.562)"/></g></svg>