<svg xmlns="http://www.w3.org/2000/svg" width="61.97" height="15.068" viewBox="0 0 61.97 15.068"><defs><style>.a{fill:none;}.b{fill:#ff6565;}</style></defs><g transform="translate(46.901)"><path class="a" d="M0,0H15.068V15.068H0Z"/><path class="b" d="M7.558,5.395v.54L8.813,7.191v-1.8ZM6.3,1h3.767V2.256H6.3ZM8.185,4.139a4.389,4.389,0,0,1,3.93,6.354l.923.923a5.622,5.622,0,0,0-.439-6.4l.892-.892a6.937,6.937,0,0,0-.885-.885l-.892.892A5.619,5.619,0,0,0,5.3,3.681l.923.923A4.371,4.371,0,0,1,8.185,4.139ZM2.635,2.8l-.885.885L3.477,5.408a5.653,5.653,0,0,0,7.836,7.836l1.57,1.57.885-.885Zm5.55,10.133A4.392,4.392,0,0,1,3.791,8.534a4.317,4.317,0,0,1,.6-2.21L10.4,12.333A4.415,4.415,0,0,1,8.185,12.929Z" transform="translate(-48.651 -0.372)"/></g></svg>